<?xml version="1.0" standalone="no"?>
<!DOCTYPE svg PUBLIC "-//W3C//DTD SVG 20010904//EN"
 "http://www.w3.org/TR/2001/REC-SVG-20010904/DTD/svg10.dtd">
<svg version="1.0" xmlns="http://www.w3.org/2000/svg"
 width="300.000000pt" height="300.000000pt" viewBox="0 0 300.000000 300.000000"
 preserveAspectRatio="xMidYMid meet">
<metadata>
Created by potrace 1.10, written by Peter Selinger 2001-2011
</metadata>
<g transform="translate(0.000000,300.000000) scale(0.100000,-0.100000)"
fill="#000000" stroke="none">
<path d="M1446 2523 c-3 -3 -6 -16 -5 -27 1 -19 2 -18 10 4 6 18 7 10 3 -25
-3 -27 -6 -59 -6 -70 1 -18 0 -19 -9 -2 -6 9 -7 22 -3 29 5 7 3 8 -6 3 -9 -6
-12 -4 -8 7 4 8 0 15 -7 15 -10 0 -7 -14 11 -49 27 -53 30 -56 30 -30 0 9 4
45 8 78 7 57 0 84 -18 67z"/>
<path d="M1215 2479 c16 -7 13 -8 -14 -6 -20 1 -36 -3 -38 -10 -3 -9 7 -12 34
-10 26 1 37 -2 36 -10 -2 -7 2 -13 7 -13 14 0 13 13 -2 29 -11 12 -9 13 7 7
20 -6 20 -6 1 9 -11 8 -27 15 -35 14 -12 0 -11 -3 4 -10z"/>
<path d="M1769 2470 c-6 -23 -2 -38 15 -57 23 -27 16 -39 -14 -23 -26 14 -37
6 -20 -15 28 -34 93 -6 71 32 -7 13 -10 14 -11 4 0 -14 -15 -6 -15 7 0 4 -4
13 -9 20 -9 16 -8 17 22 27 15 4 22 3 20 -5 -2 -7 3 -15 10 -17 6 -3 12 2 12
11 0 9 -4 17 -10 17 -30 4 -70 3 -71 -1z"/>
<path d="M1584 2455 c-4 -8 -3 -22 0 -31 7 -18 38 -15 42 4 1 7 0 8 -3 2 -9
-18 -33 -10 -33 11 0 16 5 20 20 16 11 -3 18 -1 14 4 -8 14 -34 11 -40 -6z"/>
<path d="M1183 2423 c-19 -7 -16 -27 7 -48 14 -13 27 -15 47 -10 15 4 22 10
15 12 -6 3 -9 10 -6 15 4 7 2 8 -5 4 -6 -4 -9 -12 -6 -17 4 -5 -4 -9 -17 -9
-19 0 -20 2 -8 11 13 8 12 9 -4 7 -10 -2 -21 3 -24 11 -3 9 0 11 8 6 9 -5 11
-4 6 4 -6 9 0 10 21 6 21 -5 24 -4 13 4 -16 11 -27 12 -47 4z"/>
<path d="M1930 2420 c0 -5 6 -7 14 -4 11 4 13 -1 10 -18 -4 -21 -4 -21 5 -3
10 20 10 20 11 0 1 -12 4 -15 7 -7 3 7 -1 19 -7 27 -14 17 -40 20 -40 5z"/>
<path d="M918 2345 c-31 -27 -36 -37 -13 -29 10 4 15 0 15 -11 0 -10 -5 -14
-12 -9 -8 4 -10 3 -5 -2 5 -5 14 -9 20 -9 5 0 12 -6 15 -14 3 -8 0 -11 -7 -7
-17 11 -13 0 6 -15 9 -8 14 -9 10 -2 -4 6 4 25 18 41 28 33 31 52 13 70 -17
17 -29 15 -60 -13z m60 -11 c2 -11 -6 -28 -17 -38 -20 -18 -21 -18 -27 0 -12
38 -12 42 -1 53 17 17 42 9 45 -15z"/>
<path d="M1047 2343 c4 -11 3 -14 -5 -9 -9 6 -9 1 0 -19 10 -21 13 -23 20 -11
5 9 4 24 -2 36 -13 24 -22 27 -13 3z"/>
<path d="M1102 2342 c-14 -4 -16 -32 -3 -32 5 0 14 7 21 15 7 8 16 13 20 10 5
-3 11 -2 14 3 5 8 -32 11 -52 4z"/>
<path d="M1885 2330 c-3 -5 0 -7 9 -4 12 4 14 0 10 -20 -2 -14 -1 -26 4 -26
16 0 22 13 11 27 -9 10 -8 13 2 13 11 0 11 2 -1 10 -19 12 -27 12 -35 0z"/>
<path d="M1940 2321 c0 -6 5 -13 10 -16 6 -4 8 -10 5 -15 -3 -5 6 -12 20 -16
14 -3 25 -10 25 -15 0 -5 5 -9 10 -9 7 0 7 6 0 20 -7 12 -16 17 -27 13 -9 -4
-14 -2 -11 3 3 5 -3 17 -14 27 -10 9 -18 13 -18 8z"/>
<path d="M2106 2303 c4 -22 3 -25 -5 -13 -14 19 -14 5 -1 -21 7 -13 7 -19 0
-19 -5 0 -10 5 -10 12 0 6 -3 9 -6 5 -8 -7 10 -39 22 -38 5 1 10 -8 10 -19 2
-28 -13 -25 -30 8 -8 15 -15 22 -16 17 0 -6 7 -20 15 -31 8 -12 11 -25 7 -29
-4 -4 11 2 34 13 22 11 41 27 41 36 0 8 -3 14 -6 13 -3 -1 -16 4 -28 11 -18
10 -21 18 -16 47 4 23 2 35 -6 35 -7 0 -9 -10 -5 -27z"/>
<path d="M991 2276 c-6 -7 -7 -17 -3 -21 4 -5 -2 -5 -13 -1 -16 6 -18 5 -7 -6
10 -10 16 -8 33 9 12 12 17 23 11 27 -5 3 -15 0 -21 -8z"/>
<path d="M826 2273 c-3 -4 8 -21 25 -39 20 -20 29 -39 26 -48 -9 -23 -22 -20
-61 14 -19 17 -37 27 -40 22 -7 -12 39 -55 62 -57 9 -1 23 -4 30 -6 8 -2 19 4
25 13 10 15 5 24 -28 58 -21 22 -34 40 -28 40 6 0 27 -18 47 -40 20 -22 36
-36 36 -32 0 9 -73 82 -81 82 -3 0 -9 -3 -13 -7z"/>
<path d="M727 2172 c-4 -5 12 -26 34 -48 43 -42 57 -41 87 4 13 20 13 22 -1
22 -9 0 -14 -6 -11 -13 10 -26 -41 -16 -72 14 -18 17 -34 27 -37 21z"/>
<path d="M2245 2140 c-16 -16 -25 -30 -20 -30 4 0 0 -9 -10 -20 -25 -28 -43
-25 -19 3 13 15 10 14 -10 -4 -16 -15 -27 -32 -25 -38 5 -14 129 87 129 105 0
22 -14 17 -45 -16z"/>
<path d="M2304 2098 c-4 -7 -3 -8 4 -4 18 11 14 -2 -7 -23 -22 -22 -37 -16
-18 7 9 12 6 12 -14 -2 -32 -20 -35 -58 -8 -82 11 -10 22 -14 25 -11 9 9 -16
38 -27 31 -13 -8 -11 10 3 24 9 9 17 7 34 -9 12 -11 25 -16 28 -11 3 5 -1 15
-9 22 -19 16 -19 30 0 30 16 0 36 -39 28 -52 -2 -5 0 -8 6 -8 22 0 22 41 -1
70 -26 32 -33 35 -44 18z"/>
<path d="M611 2014 c-22 -28 -28 -54 -11 -54 5 0 15 10 21 23 7 12 17 25 23
29 7 5 6 8 -4 8 -13 0 -13 1 0 10 9 6 10 10 3 10 -6 0 -21 -12 -32 -26z"/>
<path d="M2400 1970 c0 -11 -5 -20 -11 -20 -5 0 -7 5 -3 11 3 6 -8 3 -25 -5
-17 -9 -31 -19 -31 -22 0 -2 9 0 19 6 25 13 34 13 25 -1 -4 -8 0 -8 15 0 18
10 31 51 16 51 -3 0 -5 -9 -5 -20z"/>
<path d="M718 1932 c-21 -43 -15 -54 13 -26 14 15 17 26 12 41 -7 18 -10 17
-25 -15z"/>
<path d="M557 1914 c-4 -4 -4 -17 -1 -29 4 -15 0 -24 -11 -29 -18 -6 -12 -26
8 -26 7 0 6 4 -3 11 -12 9 -12 10 5 6 16 -3 20 1 20 24 0 15 -3 25 -7 22 -5
-2 -8 1 -8 6 0 6 11 11 25 11 14 0 25 -5 25 -11 0 -5 -4 -8 -9 -5 -5 4 -7 -3
-4 -14 9 -35 25 -34 21 1 -2 28 -8 35 -28 37 -14 2 -29 0 -33 -4z"/>
<path d="M2411 1906 c-19 -11 -21 -14 -7 -19 18 -7 46 1 46 13 0 16 -15 18
-39 6z"/>
<path d="M2344 1876 c-25 -19 -11 -32 18 -18 15 7 17 11 8 11 -13 1 -13 2 0
11 8 5 10 10 4 10 -5 0 -19 -6 -30 -14z"/>
<path d="M640 1861 c0 -27 -17 -36 -38 -19 -16 12 -16 11 -2 -6 14 -18 13 -18
-10 -12 -21 6 -22 5 -7 -4 14 -9 24 -8 44 5 24 16 26 16 20 1 -4 -10 -3 -15 3
-11 6 3 7 18 4 33 -4 21 -3 24 5 12 9 -13 11 -13 11 3 0 9 -7 17 -15 17 -8 0
-15 -9 -15 -19z"/>
<path d="M2462 1858 c-7 -7 -12 -23 -11 -37 l0 -26 10 23 c6 15 16 22 28 20
11 -2 19 1 18 7 -1 5 -11 8 -22 7 -17 -2 -17 -1 -5 7 8 6 10 11 5 11 -6 0 -16
-5 -23 -12z"/>
<path d="M2405 1821 c20 -8 20 -8 0 -13 -16 -5 -17 -6 -2 -7 15 -1 23 -23 18
-53 0 -4 11 -1 25 7 14 7 38 12 52 10 26 -3 42 9 42 30 0 6 -5 3 -11 -5 -8
-11 -9 -8 -4 13 4 19 2 26 -5 22 -5 -3 -10 -15 -10 -26 0 -26 -19 -24 -30 4
-6 14 -9 16 -9 6 -1 -9 -11 -24 -23 -35 -21 -19 -21 -19 -15 5 7 28 -8 51 -32
50 -12 0 -11 -2 4 -8z"/>
<path d="M2360 1777 c0 -19 20 -36 35 -30 10 3 9 9 -6 24 -22 22 -29 24 -29 6z"/>
<path d="M611 1742 c-6 -11 -8 -28 -4 -38 5 -13 3 -15 -7 -9 -9 5 -11 4 -6 -3
5 -8 -2 -12 -21 -13 -18 -1 -22 -3 -10 -6 10 -3 26 -1 35 3 9 4 20 6 25 6 4
-1 7 3 7 8 0 6 5 9 12 8 6 -2 12 7 12 20 0 12 -3 22 -8 21 -5 0 -12 5 -16 11
-6 9 -11 7 -19 -8z"/>
<path d="M2485 1709 c14 -6 8 -8 -25 -4 -43 4 -44 4 -11 -6 35 -11 61 -6 61
11 0 5 -10 10 -22 9 -22 0 -22 -1 -3 -10z"/>
<path d="M490 1700 c0 -17 28 -23 57 -11 26 10 25 10 -12 6 -30 -4 -35 -3 -20
4 19 9 19 10 -2 10 -13 1 -23 -4 -23 -9z"/>
<path d="M500 1630 c-9 -5 -15 -25 -15 -49 0 -48 12 -55 17 -9 4 39 28 51 28
14 0 -18 7 -30 23 -36 22 -9 22 -9 -3 -11 -19 -1 -20 -3 -7 -6 42 -11 76 59
42 87 -20 16 -40 3 -24 -16 10 -12 14 -12 20 -2 6 9 9 5 9 -12 0 -39 -37 -38
-45 1 -4 17 -13 29 -23 30 -10 1 -7 4 8 9 21 7 21 8 5 9 -11 0 -27 -4 -35 -9z"/>
<path d="M2383 1628 c-6 -7 -8 -32 -5 -55 3 -36 7 -43 26 -42 16 1 17 2 4 6
-21 5 -24 52 -5 73 10 12 9 12 -5 1 -11 -8 -18 -9 -18 -3 0 6 8 16 18 21 9 6
12 11 6 11 -6 0 -16 -6 -21 -12z"/>
<path d="M2484 1633 c5 -8 -4 -11 -31 -8 l-38 5 34 -9 c18 -5 37 -15 42 -23 7
-11 9 -11 9 1 0 8 2 12 5 9 4 -3 3 -17 0 -31 -5 -18 -15 -27 -33 -30 -25 -4
-25 -4 4 -6 28 -1 32 3 38 31 5 25 2 37 -15 53 -12 11 -19 15 -15 8z"/>
<path d="M2520 1547 c0 -12 -12 -17 -47 -20 l-48 -3 48 -2 c35 -2 49 2 54 13
3 9 3 19 -1 22 -3 4 -6 -1 -6 -10z"/>
<path d="M535 1500 l-40 -8 45 0 c75 0 77 -1 60 -12 -13 -8 -12 -10 3 -10 23
0 22 17 -2 30 -11 5 -21 9 -23 9 -2 -1 -21 -5 -43 -9z"/>
<path d="M477 1483 c-4 -3 -7 -15 -7 -26 0 -19 1 -19 18 -4 24 22 82 23 82 2
0 -8 4 -15 9 -15 5 0 7 9 4 20 -4 15 -14 20 -42 20 -20 0 -43 -6 -50 -12 -11
-11 -13 -10 -8 5 7 18 5 21 -6 10z"/>
<path d="M489 1386 c-15 -32 -4 -76 19 -75 9 0 12 3 5 5 -7 3 -9 13 -6 22 4
15 3 15 -6 2 -9 -12 -11 -9 -11 15 0 20 3 26 9 17 7 -11 9 -10 14 3 4 9 3 13
-3 10 -6 -3 -10 -2 -10 4 0 5 6 12 13 14 9 4 9 6 -1 6 -7 1 -17 -10 -23 -23z"/>
<path d="M564 1402 c-6 -4 -15 -26 -19 -49 -8 -48 5 -56 41 -28 15 12 15 14 2
9 -15 -5 -16 -3 -5 20 10 21 13 23 19 8 4 -10 7 -12 7 -4 1 17 -17 52 -27 52
-4 0 -12 -4 -18 -8z m26 -6 c0 -3 -5 -17 -12 -33 -6 -15 -11 -31 -10 -35 1 -5
-3 -8 -8 -8 -9 0 -7 27 6 68 3 11 24 18 24 8z"/>
<path d="M580 1215 c-10 -12 -10 -18 0 -30 7 -8 17 -15 23 -15 6 0 3 6 -8 13
-10 8 -15 19 -11 25 12 20 34 13 39 -10 5 -20 5 -20 4 2 -2 29 -28 38 -47 15z"/>
<path d="M620 1135 c-25 -13 -38 -24 -30 -25 13 0 13 -1 0 -10 -20 -13 -33
-12 -24 2 5 7 3 8 -5 3 -27 -16 6 -25 40 -11 24 11 28 15 14 16 -17 0 -17 2
-5 10 8 5 24 7 35 5 11 -3 14 -2 6 1 -10 5 -8 10 10 20 13 7 20 13 14 13 -5 0
-30 -11 -55 -24z"/>
<path d="M658 1022 c-41 -23 -64 -52 -40 -52 14 0 37 19 37 31 0 7 6 14 14 17
8 3 11 0 7 -7 -5 -8 0 -8 18 1 14 6 26 17 26 25 0 18 -8 16 -62 -15z"/>
<path d="M705 975 c-16 -14 -31 -29 -31 -35 -3 -23 -5 -24 -14 -10 -8 13 -10
12 -10 -2 0 -10 3 -18 6 -18 14 0 64 42 59 50 -3 5 5 16 17 24 12 9 18 16 13
16 -6 -1 -23 -12 -40 -25z"/>
<path d="M2295 991 c6 -11 4 -13 -8 -8 -28 10 -20 1 23 -27 23 -15 45 -24 51
-21 12 8 3 22 -23 36 -16 8 -19 8 -13 -1 5 -8 3 -11 -6 -8 -8 3 -14 10 -14 16
0 5 -4 14 -9 19 -6 5 -6 2 -1 -6z"/>
<path d="M757 964 c-3 -3 -2 -18 3 -34 5 -18 4 -32 -3 -39 -18 -18 -31 -13
-16 6 8 9 0 6 -19 -7 -21 -16 -29 -27 -22 -34 13 -13 84 44 88 71 3 20 -20 48
-31 37z"/>
<path d="M2166 962 c-3 -5 6 -20 21 -33 14 -13 23 -18 18 -10 -5 9 -3 12 6 9
8 -3 13 -10 12 -16 -1 -5 7 -18 19 -28 12 -11 18 -13 13 -5 -5 9 -4 12 4 10 7
-3 11 -7 9 -11 -5 -10 44 -58 59 -58 16 0 17 16 1 26 -7 5 -8 3 -3 -6 5 -8 3
-11 -6 -8 -8 3 -14 9 -14 14 0 16 -13 29 -74 77 -33 26 -62 43 -65 39z"/>
<path d="M762 838 c-28 -28 -2 -75 34 -61 24 8 64 45 64 58 0 6 -4 4 -9 -4 -7
-11 -13 -11 -32 3 -28 19 -41 20 -57 4z m22 -13 c-18 -14 -17 -15 8 -5 28 10
42 2 30 -16 -12 -18 -53 -24 -59 -8 -8 21 4 44 24 44 15 0 15 -2 -3 -15z"/>
<path d="M2080 800 c-11 -6 -5 -20 24 -55 25 -30 42 -43 48 -37 14 14 -55 102
-72 92z m43 -46 c16 -19 27 -38 24 -40 -2 -3 -19 13 -37 36 -17 22 -28 40 -23
40 4 0 21 -16 36 -36z"/>
<path d="M882 756 c-18 -24 -32 -48 -32 -53 0 -4 5 -1 10 7 7 11 10 12 10 2 0
-8 12 0 26 17 29 35 48 39 63 14 8 -14 10 -15 11 -3 0 13 1 13 10 0 5 -8 10
-10 10 -4 0 6 -9 19 -19 28 -15 14 -24 15 -40 7 -26 -15 -31 -14 -25 4 4 8 10
12 15 9 5 -3 9 0 9 5 0 22 -17 10 -48 -33z"/>
<path d="M1980 736 c-30 -30 10 -106 57 -106 37 0 73 67 45 84 -5 3 -7 -9 -5
-27 2 -29 2 -30 -6 -7 l-9 25 -2 -25 c-1 -14 -2 -28 -1 -32 0 -5 -10 -8 -24
-8 -14 0 -24 5 -22 12 1 7 -5 12 -13 13 -10 0 -15 11 -15 34 0 22 6 36 15 39
13 5 13 3 0 -14 -14 -18 -14 -18 3 -5 16 13 22 13 40 1 21 -12 21 -12 7 5 -14
17 -13 18 5 11 11 -4 16 -4 12 1 -12 11 -75 11 -87 -1z"/>
<path d="M929 689 c-22 -31 -24 -39 -8 -39 12 0 30 20 49 51 16 28 -19 18 -41
-12z"/>
<path d="M1017 669 c-11 -15 -16 -17 -20 -7 -2 7 -3 -1 -2 -18 3 -42 11 -53
37 -46 l22 5 -22 8 c-26 10 -28 26 -6 57 8 12 13 22 10 22 -3 0 -11 -9 -19
-21z"/>
<path d="M1879 679 c-8 -5 -9 -9 -4 -9 6 0 11 -9 11 -20 0 -24 -12 -27 -19 -5
-4 11 -4 10 -3 -2 1 -15 9 -17 49 -15 42 3 47 2 47 -18 0 -12 -4 -19 -8 -16
-4 2 -14 1 -21 -3 -10 -7 -9 -9 2 -14 19 -7 40 16 35 40 -2 13 -14 19 -40 21
-29 3 -36 7 -35 23 1 13 6 17 19 13 10 -3 18 -2 18 3 0 12 -33 13 -51 2z"/>
<path d="M1304 646 c-3 -7 -1 -29 5 -47 10 -33 10 -32 6 11 -4 33 -2 39 4 25
9 -19 10 -19 10 3 1 24 -16 30 -25 8z"/>
<path d="M1636 648 c-3 -7 -6 -22 -8 -33 -2 -12 -11 -20 -23 -20 -32 0 -45
-14 -45 -46 0 -51 16 -70 56 -65 45 4 57 16 51 52 -4 29 -4 28 -6 -3 0 -18 -5
-33 -9 -33 -5 0 -6 15 -4 33 3 17 2 30 -1 26 -4 -3 -7 -19 -9 -37 -1 -18 -4
-32 -6 -32 -15 0 -42 24 -43 38 0 14 -2 14 -9 -3 -7 -16 -9 -11 -9 20 -1 31 2
37 10 25 9 -13 10 -12 5 3 -6 20 -5 20 28 7 14 -5 25 -6 25 -2 -1 4 0 23 1 42
l3 35 7 -40 7 -40 2 37 c1 36 -15 62 -23 36z"/>
<path d="M1102 625 c-14 -31 -15 -46 -2 -25 9 13 10 13 10 0 1 -8 8 -2 16 13
9 16 13 31 10 35 -3 3 -6 -1 -6 -9 0 -11 -2 -11 -8 -1 -6 9 -12 5 -20 -13z"/>
<path d="M1180 626 c0 -5 13 -6 30 -3 24 5 28 4 23 -11 -3 -9 -12 -22 -20 -28
-12 -10 -11 -12 1 -17 10 -4 17 4 22 26 6 28 8 30 15 12 6 -15 8 -16 8 -4 1 9
-5 21 -11 27 -15 12 -68 11 -68 -2z"/>
<path d="M1456 631 c-4 -6 -2 -20 5 -32 11 -21 12 -21 21 -5 12 21 -14 57 -26
37z"/>
<path d="M1763 624 c-3 -8 -1 -39 5 -67 l11 -52 -4 65 c-3 45 -2 57 4 40 l9
-25 1 28 c1 29 -16 37 -26 11z"/>
<path d="M1432 575 c-14 -31 -15 -46 -2 -25 6 10 10 11 10 3 0 -23 47 -15 53
9 8 29 1 36 -8 8 -7 -23 -35 -24 -43 -1 -3 8 0 11 7 7 7 -5 9 -1 5 8 -8 21 -9
20 -22 -9z"/>
<path d="M1720 547 c18 -26 34 -47 35 -47 1 0 1 10 0 23 -1 12 -8 22 -15 22
-7 0 -15 6 -18 14 -3 9 0 11 9 6 8 -5 11 -4 6 1 -5 5 -12 9 -15 9 -4 0 -13 4
-21 9 -8 5 0 -12 19 -37z"/>
<path d="M1165 570 c-3 -5 -3 -14 0 -20 3 -5 0 -10 -7 -10 -20 -1 11 -16 47
-24 28 -6 29 -5 12 8 -11 8 -25 12 -32 10 -9 -4 -13 2 -11 20 3 28 1 32 -9 16z"/>
</g>
</svg>
