<?xml version="1.0" standalone="no"?>
<!DOCTYPE svg PUBLIC "-//W3C//DTD SVG 20010904//EN"
 "http://www.w3.org/TR/2001/REC-SVG-20010904/DTD/svg10.dtd">
<svg version="1.0" xmlns="http://www.w3.org/2000/svg"
 width="300.000000pt" height="300.000000pt" viewBox="0 0 300.000000 300.000000"
 preserveAspectRatio="xMidYMid meet">
<metadata>
Created by potrace 1.10, written by Peter Selinger 2001-2011
</metadata>
<g transform="translate(0.000000,300.000000) scale(0.100000,-0.100000)"
fill="#000000" stroke="none">
<path d="M2506 1805 c-45 -16 -63 -31 -83 -68 -21 -42 -12 -111 18 -144 51
-54 105 -66 166 -36 47 22 73 66 73 126 0 40 -5 53 -32 83 -40 43 -90 57 -142
39z m120 -49 c27 -27 34 -42 34 -72 0 -53 -30 -99 -75 -114 -123 -41 -209 120
-107 200 16 13 40 20 69 20 38 0 50 -5 79 -34z"/>
<path d="M2502 1737 c-24 -25 -29 -75 -11 -108 13 -24 50 -40 78 -32 31 8 27
31 -4 25 -34 -6 -55 14 -55 52 0 43 14 60 49 61 43 0 44 19 1 23 -27 2 -41 -3
-58 -21z"/>
<path d="M190 1435 l0 -205 61 0 62 0 -5 140 c-3 77 -4 139 -2 138 1 -2 12
-41 24 -88 12 -47 28 -108 36 -137 l15 -52 49 1 49 0 15 51 c8 29 24 90 36
137 12 47 23 86 24 88 2 1 1 -60 -2 -137 l-5 -139 67 -1 66 0 0 204 0 205 -90
0 -89 0 -10 -37 c-6 -21 -17 -69 -26 -108 -9 -38 -19 -77 -22 -85 -3 -8 -18
40 -35 108 l-30 122 -94 0 -94 0 0 -205z m161 135 c4 -14 15 -51 24 -82 9 -31
25 -68 37 -83 19 -24 21 -25 44 -10 22 14 24 14 24 -3 0 -40 -32 -112 -50
-112 -19 0 -27 16 -60 125 -12 39 -30 81 -40 95 -18 24 -20 24 -37 8 -13 -14
-18 -39 -21 -115 -4 -99 -14 -131 -32 -103 -11 17 -14 269 -4 295 5 12 18 15
57 13 44 -3 51 -6 58 -28z m277 18 c13 -13 18 -262 6 -292 -3 -9 -15 -16 -25
-16 -17 0 -19 8 -19 89 0 89 -13 151 -33 151 -6 0 -19 -8 -30 -17 -20 -18 -20
-17 -13 27 4 24 12 50 18 57 13 16 80 17 96 1z"/>
<path d="M760 1435 l0 -204 65 2 66 2 2 203 2 202 -67 0 -68 0 0 -205z m88 2
c2 -152 2 -157 -18 -157 -19 0 -20 6 -20 153 0 85 3 157 7 161 22 21 28 -11
31 -157z"/>
<path d="M962 1618 c9 -13 45 -69 82 -124 l66 -102 0 -80 0 -80 65 0 65 -1 0
82 0 82 80 123 79 122 -72 0 -73 0 -38 -71 -38 -71 -40 71 -39 71 -75 0 -76 0
14 -22z m136 -60 c39 -57 67 -80 89 -76 10 2 35 29 56 61 21 31 45 57 53 57
22 0 17 -21 -17 -70 -55 -82 -73 -124 -79 -185 -4 -53 -8 -60 -27 -63 -21 -3
-23 0 -23 48 0 60 -15 99 -69 179 -23 33 -41 67 -41 75 0 30 29 16 58 -26z"/>
<path d="M1450 1498 c-29 -79 -63 -171 -75 -205 l-23 -61 68 0 c68 1 69 1 75
29 7 29 7 29 80 29 73 0 73 0 80 -29 6 -28 7 -28 76 -29 49 0 69 3 66 11 -2 7
-35 99 -73 204 l-69 193 -76 0 -77 0 -52 -142z m180 83 c19 -37 100 -264 100
-283 0 -26 -32 -23 -60 7 -13 14 -29 25 -37 25 -18 0 -16 25 3 41 29 24 -5
147 -48 173 -24 14 -53 -14 -72 -72 -20 -57 -20 -86 -1 -102 17 -15 20 -40 4
-40 -6 0 -24 -11 -41 -25 -30 -25 -58 -33 -58 -16 0 21 94 277 108 294 21 24
88 23 102 -2z m-36 -107 c7 -27 16 -59 20 -71 7 -22 5 -23 -39 -23 -35 0 -46
3 -42 13 3 7 13 41 22 75 10 35 20 61 22 58 2 -2 10 -26 17 -52z"/>
<path d="M1840 1435 l0 -205 61 0 62 0 -5 140 c-3 77 -4 139 -3 138 2 -2 17
-57 34 -123 18 -66 34 -128 37 -138 5 -15 15 -17 57 -15 l51 3 31 125 c17 69
34 132 37 140 3 8 3 -49 0 -126 l-5 -142 67 0 66 -1 0 205 0 204 -90 0 -89 0
-10 -37 c-6 -21 -19 -73 -28 -115 -10 -43 -20 -78 -23 -78 -3 0 -19 52 -34
115 l-28 115 -94 0 -94 0 0 -205z m147 157 c6 -4 21 -40 32 -81 32 -117 59
-143 104 -103 19 16 19 16 13 -5 -3 -13 -9 -33 -12 -45 -13 -53 -27 -78 -45
-78 -14 0 -25 22 -50 101 -18 56 -41 111 -50 123 -17 20 -19 20 -36 3 -14 -14
-18 -38 -21 -122 -3 -77 -8 -105 -17 -105 -21 0 -25 25 -25 164 0 89 4 136 12
144 13 13 76 16 95 4z m291 -4 c14 -14 17 -275 3 -297 -5 -8 -16 -11 -25 -8
-13 5 -16 23 -16 90 0 86 -14 147 -33 147 -6 0 -19 -7 -29 -17 -17 -15 -18
-15 -18 6 0 12 7 37 14 56 13 31 19 35 53 35 22 0 44 -5 51 -12z"/>
</g>
</svg>
